<svg xmlns="http://www.w3.org/2000/svg" width="279.961" height="48.001" viewBox="0 0 279.961 48.001">
  <g id="グループ_370" data-name="グループ 370" transform="translate(-32.764 -22.001)">
    <g id="グループ_368" data-name="グループ 368" transform="translate(11138.764 12427.001)">
      <path id="パス_15" data-name="パス 15" d="M84.407,19.574a2.224,2.224,0,0,0-.2-2.02c-.011-.015-.024-.03-.037-.046a.172.172,0,0,1-.012-.015,1.171,1.171,0,0,1-.212-.758l.489-1.436a.229.229,0,0,0-.141-.29h0a.228.228,0,0,0-.29.142l-.478,1.4a1.211,1.211,0,0,1-.655.487l-.022.005-.057.013a2.221,2.221,0,0,0-1.415,1.455,1.891,1.891,0,0,0,.83,2.495l.018.005.006,0h.015a1.9,1.9,0,0,0,2.164-1.447m-2.6-.907A1.788,1.788,0,0,1,82.919,17.5l.013,0,.027-.006a1,1,0,0,0,.276-.093l-1.062,3.084a1.594,1.594,0,0,1-.366-1.816m.8,1.953,1.05-3.052a.975.975,0,0,0,.147.221l.014.019.012.011.005.006a1.789,1.789,0,0,1,.139,1.6,1.628,1.628,0,0,1-1.366,1.2" transform="translate(-11158.104 -12412.619)" fill="#9f1823"/>
      <path id="パス_16" data-name="パス 16" d="M74.874,31a2.223,2.223,0,0,0-1.02-1.755c-.017-.01-.035-.018-.053-.027s-.011-.006-.016-.009a1.17,1.17,0,0,1-.507-.6L73.129,27.1a.228.228,0,0,0-.248-.205h0a.228.228,0,0,0-.206.249l.146,1.476a1.213,1.213,0,0,1-.4.715c-.006,0-.012.01-.018.013l-.046.036a2.223,2.223,0,0,0-.686,1.911c.105,1.145.906,2.008,1.789,1.927l.018,0h.008l.014,0A1.9,1.9,0,0,0,74.874,31m-2.743.25a1.789,1.789,0,0,1,.53-1.523l.01-.008.023-.016a1.007,1.007,0,0,0,.212-.2l.311,3.247a1.6,1.6,0,0,1-1.085-1.5M73.67,32.7l-.308-3.213a.967.967,0,0,0,.225.14l.02.011.015.006.008,0a1.789,1.789,0,0,1,.788,1.4A1.626,1.626,0,0,1,73.67,32.7" transform="translate(-11151.97 -12420.25)" fill="#9f1823"/>
      <path id="パス_17" data-name="パス 17" d="M62.585,26.57a2.221,2.221,0,0,0-1.7-1.1c-.019,0-.039,0-.059,0h-.018a1.173,1.173,0,0,1-.725-.309l-.815-1.279a.228.228,0,0,0-.314-.071h0a.229.229,0,0,0-.072.315l.8,1.251a1.214,1.214,0,0,1-.03.816c0,.006-.006.014-.01.019s-.017.035-.025.052a2.227,2.227,0,0,0,.252,2.016,1.891,1.891,0,0,0,2.466.911l.015-.011.006,0h0a.142.142,0,0,0,.01-.01,1.9,1.9,0,0,0,.223-2.594m-2.334,1.462a1.788,1.788,0,0,1-.216-1.6l.006-.011a.282.282,0,0,1,.013-.025.989.989,0,0,0,.1-.273L61.9,28.882a1.6,1.6,0,0,1-1.646-.85m2.026.595L60.552,25.9a.972.972,0,0,0,.264.023h.023l.016,0h.009a1.789,1.789,0,0,1,1.334.891,1.626,1.626,0,0,1,.079,1.814" transform="translate(-11143.747 -12418.248)" fill="#9f1823"/>
      <path id="パス_18" data-name="パス 18" d="M90.9,33.615a2.222,2.222,0,0,0,.362-2c-.007-.018-.015-.036-.023-.054s0-.011-.007-.017a1.17,1.17,0,0,1,.005-.788l.865-1.246a.228.228,0,0,0-.056-.317h0a.228.228,0,0,0-.318.056l-.846,1.219a1.213,1.213,0,0,1-.764.288h-.022l-.058,0a2.221,2.221,0,0,0-1.761,1.009,1.891,1.891,0,0,0,.111,2.627l.016.01.005,0h0l.013.006a1.9,1.9,0,0,0,2.478-.8m-2.251-1.588a1.79,1.79,0,0,1,1.391-.816h.013l.027,0a1.018,1.018,0,0,0,.29-.013L88.5,33.874a1.6,1.6,0,0,1,.147-1.847m.234,2.1,1.849-2.645a.968.968,0,0,0,.081.253l.008.022.009.014,0,.008a1.79,1.79,0,0,1-.306,1.575,1.628,1.628,0,0,1-1.643.774" transform="translate(-11162.324 -12421.701)" fill="#9f1823"/>
      <path id="パス_19" data-name="パス 19" d="M97.835,15.781A2.223,2.223,0,0,0,98,13.758l-.028-.052s-.006-.011-.009-.016a1.171,1.171,0,0,1-.072-.784l.74-1.324a.228.228,0,0,0-.086-.31h0a.229.229,0,0,0-.311.087l-.724,1.3a1.211,1.211,0,0,1-.733.36h-.022l-.058,0a2.224,2.224,0,0,0-1.654,1.176,1.891,1.891,0,0,0,.367,2.6l.016.008.006,0h0l.013,0a1.9,1.9,0,0,0,2.39-1.033M95.44,14.419a1.789,1.789,0,0,1,1.305-.947h.04a1,1,0,0,0,.289-.042l-1.6,2.843a1.6,1.6,0,0,1-.033-1.853m.438,2.066,1.583-2.812a.959.959,0,0,0,.1.243l.011.022.009.013,0,.007a1.79,1.79,0,0,1-.151,1.6,1.627,1.627,0,0,1-1.56.93" transform="translate(-11166.75 -12410.211)" fill="#9f1823"/>
      <path id="パス_20" data-name="パス 20" d="M110.781,13.824a2.224,2.224,0,0,0,.572-1.948c-.005-.018-.011-.037-.017-.056s0-.012-.005-.018a1.172,1.172,0,0,1,.089-.783l.992-1.146a.229.229,0,0,0-.022-.322h0a.228.228,0,0,0-.323.022l-.971,1.122a1.21,1.21,0,0,1-.791.2.146.146,0,0,1-.022,0c-.019,0-.038-.007-.058-.009a2.22,2.22,0,0,0-1.858.817,1.891,1.891,0,0,0-.168,2.624l.015.011a.038.038,0,0,1,0,.006h0a.121.121,0,0,0,.012.007,1.9,1.9,0,0,0,2.549-.528M108.711,12a1.792,1.792,0,0,1,1.47-.664l.013,0,.027.005a1.016,1.016,0,0,0,.29.017l-2.143,2.46A1.6,1.6,0,0,1,108.711,12m.01,2.112,2.12-2.434a.978.978,0,0,0,.054.26l.006.023.007.015,0,.008a1.789,1.789,0,0,1-.472,1.533,1.628,1.628,0,0,1-1.716.6" transform="translate(-11175.116 -12409.09)" fill="#9f1823"/>
      <path id="パス_21" data-name="パス 21" d="M103.512,29.261a2.224,2.224,0,0,0,1.246-1.6c0-.019,0-.039,0-.059s0-.012,0-.018a1.172,1.172,0,0,1,.37-.7l1.343-.7a.228.228,0,0,0,.1-.308h0a.228.228,0,0,0-.308-.1l-1.314.688a1.212,1.212,0,0,1-.811-.1c-.006,0-.014-.008-.019-.012l-.051-.03a2.221,2.221,0,0,0-2.028.08,1.891,1.891,0,0,0-1.117,2.38c0,.006.006.01.009.016a.017.017,0,0,1,0,.007h0a.086.086,0,0,0,.009.011,1.9,1.9,0,0,0,2.566.443m-1.26-2.45a1.792,1.792,0,0,1,1.61-.079l.011.006.023.015a1.011,1.011,0,0,0,.264.122l-2.9,1.5a1.594,1.594,0,0,1,.986-1.569m-.764,1.969,2.864-1.488a.96.96,0,0,0-.046.261l0,.024V27.6a1.786,1.786,0,0,1-1,1.254,1.627,1.627,0,0,1-1.814-.075" transform="translate(-11170.651 -12419.519)" fill="#9f1823"/>
      <path id="パス_22" data-name="パス 22" d="M28.285,20.516c-.059-.1-6.006-10.671-13.924-14.578l.2-.411C22.608,9.5,28.622,20.185,28.682,20.289Z" transform="translate(-11115.212 -12406.546)" fill="#9f1823"/>
      <path id="パス_23" data-name="パス 23" d="M41.374,68.083H39.355L44.4,76.852h2.037Z" transform="translate(-11131.246 -12446.674)" fill="#9f1823"/>
      <path id="パス_24" data-name="パス 24" d="M13.449,23.293l3.6,6.231H23.72a44.4,44.4,0,0,0-4.436-6.231Z" transform="translate(-11114.628 -12417.942)" fill="#9f1823"/>
      <path id="パス_25" data-name="パス 25" d="M50.807,0H0L3.6,6.23H8.7A30.967,30.967,0,0,0,4.764,2.87.839.839,0,0,1,5.25,1.348a.829.829,0,0,1,.278.048A30.279,30.279,0,0,1,13.167,6.23H30.962l.311-.914a.889.889,0,1,1,1.681.578l-.114.336h1.172a2.773,2.773,0,0,1,1.879-1.083l.1-.006h.052c-.01,0,.065-.031.2-.134l.661-1.184a.889.889,0,1,1,1.55.872l-.677,1.211a.924.924,0,0,0,0,.232l.015.023.035.068h.31a3.187,3.187,0,0,1,.615-1.053,2.97,2.97,0,0,1,2.166-1.053,2.282,2.282,0,0,1,.267.016l.1.015.057.012c-.01-.005.075-.024.218-.092l.887-1.026a.889.889,0,1,1,1.342,1.167l-.909,1.049a.95.95,0,0,0-.047.228l.01.025s.024.085.03.108a2.31,2.31,0,0,1,.066.6H47.21Z" transform="translate(-11106 -12403)" fill="#9f1823"/>
      <path id="パス_26" data-name="パス 26" d="M49.3,28.32a2.888,2.888,0,0,1-.3-2.627l.043-.094.025-.045c-.007.008,0-.072-.023-.24l-.73-1.145a.889.889,0,0,1-.041-.876H43.254a40.239,40.239,0,0,1,5.155,6.231h2.263a3.085,3.085,0,0,1-1.368-1.2" transform="translate(-11133.746 -12417.942)" fill="#9f1823"/>
      <path id="パス_27" data-name="パス 27" d="M105.481,23.293c-.081.079-.163.153-.249.223a.888.888,0,0,1,.394,1.676l-1.23.644a.932.932,0,0,0-.128.195v.026s-.009.09-.012.113a2.885,2.885,0,0,1-1.6,2.1,3.2,3.2,0,0,1-1.451.363,2.238,2.238,0,0,1-1.947-.992l-.027-.039-.086-.163,0-.015a1.888,1.888,0,0,1-.081-.217l-.044.065A.887.887,0,0,0,99,27.5l.012.024s.033.081.041.1a2.7,2.7,0,0,1-.064,1.893h6.9l3.6-6.231Z" transform="translate(-11169.496 -12417.942)" fill="#9f1823"/>
      <path id="パス_28" data-name="パス 28" d="M70.994,27.624a2.89,2.89,0,0,1,2.309-1.29l.1,0,.051.006c-.009,0,.068-.025.213-.114l.664-.956a2.006,2.006,0,0,1-.275-.1l-.046-.018-.159-.089-.01-.01a2.184,2.184,0,0,1-.955-1.761H72.6a3.12,3.12,0,0,1-.084,1.82,2.693,2.693,0,0,1-2.4,1.949A1.959,1.959,0,0,1,69.617,27l-.048-.01-.171-.057-.011-.009a2.558,2.558,0,0,1-1.154-3.3,3.272,3.272,0,0,1,.134-.327H61.712l.7,1.1a.918.918,0,0,0,.2.11l.027,0,.11,0a2.887,2.887,0,0,1,2.233,1.414,3.312,3.312,0,0,1,.376.838,2.259,2.259,0,0,1,.194-.186l.081-.064.043-.028c-.01,0,.036-.063.088-.225L65.632,24.9A.89.89,0,0,1,66.15,24a.877.877,0,0,1,.283-.075.891.891,0,0,1,.97.8l.137,1.381a.937.937,0,0,0,.133.191l.025.01.1.051a2.888,2.888,0,0,1,1.353,2.271,3.334,3.334,0,0,1-.037.892h1.3a3.051,3.051,0,0,1,.579-1.9" transform="translate(-11145.587 -12417.942)" fill="#9f1823"/>
      <path id="パス_29" data-name="パス 29" d="M46.55,26.437l3.6-6.23H30.279C23.595,9.062,14.4,5.506,14.309,5.475a.229.229,0,0,0-.208.4c6.935,4.938,10.969,12.586,11.828,14.33h-7.3l3.6,6.23H29.3a40.07,40.07,0,0,1,3.3,9.25,7.965,7.965,0,0,0-.12,1.236v3.739L31.406,38.8H29.364l5.023,8.7,11.294-19.59H43.672L34.388,43.947l-1.446-2.495V36.918a12.168,12.168,0,0,1,5.112-9.144,2,2,0,0,0,2.407-.262,2.226,2.226,0,0,0,.895-1.822c0-.02-.005-.039-.008-.058s0-.012,0-.019a1.176,1.176,0,0,1,.221-.756l1.173-.962a.228.228,0,0,0,.034-.32h0a.229.229,0,0,0-.322-.033l-1.147.941a1.213,1.213,0,0,1-.814.067l-.021-.007c-.019-.007-.037-.014-.056-.019a2.224,2.224,0,0,0-1.97.489,1.945,1.945,0,0,0-.7,2.42,14.155,14.155,0,0,0-2.654,2.614V27.784a1.99,1.99,0,0,0,1.378-2.032,2.228,2.228,0,0,0-.831-1.853l-.05-.031-.015-.011a1.173,1.173,0,0,1-.441-.653l.009-1.517a.227.227,0,0,0-.224-.231h0a.229.229,0,0,0-.231.226l-.009,1.484a1.215,1.215,0,0,1-.468.669.2.2,0,0,1-.019.011l-.049.03a2.222,2.222,0,0,0-.882,1.828,1.969,1.969,0,0,0,1.377,2.083v2.889a12.628,12.628,0,0,0-2,4.832,29.414,29.414,0,0,0-.645-9.074h.682A3.269,3.269,0,0,1,32.6,25.7a2.886,2.886,0,0,1,1.175-2.369l.086-.056.046-.023c-.01,0,.042-.059.111-.215l.009-1.357a.889.889,0,0,1,.608-.835.867.867,0,0,1,.289-.046.893.893,0,0,1,.881.9L35.8,23.083a.974.974,0,0,0,.111.2l.024.013s.073.048.091.062a2.86,2.86,0,0,1,1.1,2.291,3.167,3.167,0,0,1,.9-1.154A2.889,2.889,0,0,1,40.6,23.89l.1.032.047.02c-.008-.006.072-.005.237-.053l1.049-.86a.889.889,0,0,1,1.031-.066.87.87,0,0,1,.22.193.892.892,0,0,1-.128,1.251l-1.074.881A.924.924,0,0,0,42,25.5L42,25.53s.01.087.011.11a2.381,2.381,0,0,1-.083.8Zm-20.114-6.23A42.794,42.794,0,0,0,15.957,6.717a36.75,36.75,0,0,1,13.79,13.49Zm14.446,5.206a.977.977,0,0,0,.009.265l0,.023,0,.016v.008a1.789,1.789,0,0,1-.726,1.431,1.627,1.627,0,0,1-1.792.3Zm-2.153-.044a1.792,1.792,0,0,1,1.561-.4l.013,0a.114.114,0,0,0,.025.009.973.973,0,0,0,.283.067L38.083,27.1a1.594,1.594,0,0,1,.647-1.736m-3.6-1.283a.965.965,0,0,0,.21.163l.019.013.015.008.006,0a1.788,1.788,0,0,1,.638,1.472,1.628,1.628,0,0,1-.917,1.568Zm-1.409,1.629a1.79,1.79,0,0,1,.686-1.46l.011-.007.024-.014a.988.988,0,0,0,.232-.175l-.029,3.261h0a1.6,1.6,0,0,1-.92-1.605" transform="translate(-11114.984 -12406.503)" fill="#9f1823"/>
    </g>
    <g id="グループ_369" data-name="グループ 369" transform="translate(11146 12423.918)">
      <path id="パス_30" data-name="パス 30" d="M179.162,38.932a34.614,34.614,0,0,0-5.057-.263H151.443a43.881,43.881,0,0,0-5.394.263V34.174a49.187,49.187,0,0,0,5.281.225h22.663a50.35,50.35,0,0,0,5.169-.225Zm-30.528-30.3a30.772,30.772,0,0,0,4.757.262h18.28a34.253,34.253,0,0,0,4.945-.262v4.72a37.572,37.572,0,0,0-4.907-.225H153.465a31.964,31.964,0,0,0-4.832.225Zm2.4,12.286a30.864,30.864,0,0,0,4.308.224h14.534a36.791,36.791,0,0,0,4.345-.224v4.608a38.433,38.433,0,0,0-4.308-.188h-14.5a36.241,36.241,0,0,0-4.383.188Z" transform="translate(-11199.605 -12408.484)" fill="#262626"/>
      <path id="パス_31" data-name="パス 31" d="M277.569,40.472v-2.06h-22.7v2.06H250.6a40.546,40.546,0,0,0,.225-4.72V12.228a33.951,33.951,0,0,0-.187-4.008,38.7,38.7,0,0,0,4.345.188h22.512A38.426,38.426,0,0,0,281.8,8.22a32.088,32.088,0,0,0-.187,3.971V35.752a40.982,40.982,0,0,0,.225,4.72Zm-22.7-19.216h9.065V12.19h-9.065Zm0,13.448h9.065V24.964h-9.065Zm13.11-13.448h9.552V12.19H267.98Zm0,13.448h9.552V24.964H267.98Z" transform="translate(-11265.765 -12408.227)" fill="#262626"/>
      <path id="パス_32" data-name="パス 32" d="M354.517,27.329a36.5,36.5,0,0,0-4.57.224V23.4a31.831,31.831,0,0,0,4.532.263h10.189V23.4a17.533,17.533,0,0,0-.112-2.06h1.611a19.852,19.852,0,0,0,4.42-3.034h-10.3a37.226,37.226,0,0,0-3.746.149V14.706a27.38,27.38,0,0,0,3.783.187h12.4a16.925,16.925,0,0,0,2.847-.15l2.06,2.285c-.636.524-.636.524-1.348,1.123a52.451,52.451,0,0,1-7.492,5.469v.038h9.777a30.89,30.89,0,0,0,4.607-.263v4.158a37.015,37.015,0,0,0-4.645-.224h-9.739v6.555a3.615,3.615,0,0,1-.487,2.36c-.636.937-1.91,1.236-5.281,1.236-.487,0-1.723-.037-3.671-.149a14.215,14.215,0,0,0-1.236-3.971,34.154,34.154,0,0,0,4.645.375c1.648,0,1.91-.113,1.91-.861V27.329Zm1.91-18.5a21.731,21.731,0,0,0-2.809-4.233L357.4,3.468a27.633,27.633,0,0,1,3.409,5.356h3.97a21.888,21.888,0,0,0-2.285-4.72l3.9-1.086a29.634,29.634,0,0,1,2.585,5.806h3.184a24.8,24.8,0,0,0,3.071-5.619l4.046,1.124a39.2,39.2,0,0,1-2.81,4.495h1.686a45.086,45.086,0,0,0,4.607-.15,23.521,23.521,0,0,0-.15,3.109v3.483a22.7,22.7,0,0,0,.187,2.847h-4.083V12.308H354.292v5.806h-4.083a16.418,16.418,0,0,0,.187-2.884V11.784a24.608,24.608,0,0,0-.15-3.109,36.024,36.024,0,0,0,4.42.15Z" transform="translate(-11328.63 -12404.936)" fill="#262626"/>
      <path id="パス_33" data-name="パス 33" d="M481.295,39.484V37.949H457.022v1.535h-4.158a43.194,43.194,0,0,0,.225-4.907V10.267a41.454,41.454,0,0,0-.225-4.495,35.508,35.508,0,0,0,4.383.187h23.786a35.877,35.877,0,0,0,4.383-.187,38.287,38.287,0,0,0-.187,4.495V34.615a36.225,36.225,0,0,0,.225,4.869Zm-24.272-8.84c1.573-.6,2.7-1.049,3.371-1.386a20.652,20.652,0,0,0,4.308-2.772h-2.173c-1.686.037-1.686.037-2.473.075a15.582,15.582,0,0,0,.113-2.023V21.8a11.306,11.306,0,0,0-.113-2.023,21.33,21.33,0,0,0,2.473.075h13.26a20.974,20.974,0,0,0,2.472-.075,14.53,14.53,0,0,0-.075,2.023v2.734a13.1,13.1,0,0,0,.075,1.986l1.574.9a7.183,7.183,0,0,0-.674.637,20.991,20.991,0,0,1-2.21,1.723,27.171,27.171,0,0,0,3.784,1.2,26.471,26.471,0,0,0-2.4,3.071c-4.009-1.723-6.481-3.259-8.391-5.169.037.674.037.674.037,1.311v1.611a11.63,11.63,0,0,0,.15,2.135h-4.046a12.129,12.129,0,0,0,.15-2.135V30.2c0-.225.038-.9.038-1.2a28.57,28.57,0,0,1-6.893,4.533,10.322,10.322,0,0,0-2.359-2.772v3.9h24.235V9.293H457.022Zm5.394-16.332a24.184,24.184,0,0,0-3.109.15V11.353a16.577,16.577,0,0,0,3.146.187h4.5c-.038-.6-.075-1.011-.15-1.5h4.2a9.8,9.8,0,0,0-.15,1.5h5.282a16.006,16.006,0,0,0,3-.187v3.109a21.285,21.285,0,0,0-3-.15h-5.282v1.535h6.705a14.87,14.87,0,0,0,2.922-.187V18.92a16.233,16.233,0,0,0-2.847-.187H460.768a17.41,17.41,0,0,0-2.922.187V15.661a15.494,15.494,0,0,0,3,.187h6.106V14.313Zm1.5,9.514H474.4V22.516H463.914Zm7.529,2.66a18.933,18.933,0,0,0,2.884,1.985,18.21,18.21,0,0,0,2.21-1.985h-5.094Z" transform="translate(-11393.752 -12406.677)" fill="#262626"/>
      <path id="パス_34" data-name="パス 34" d="M571.566,8a10.707,10.707,0,0,0-.1-1.8h2.082a12.052,12.052,0,0,0-.1,1.735V9.005h4.528a11.815,11.815,0,0,0,1.5-.066,12.066,12.066,0,0,0-.066,1.454v5.04a11.3,11.3,0,0,0,.083,1.652h-1.95v-.991h-4.1v3.355a12.943,12.943,0,0,0,.116,2.049H571.45a13.831,13.831,0,0,0,.116-2.049V16.094h-3.9v.991h-1.95a12.389,12.389,0,0,0,.083-1.652V10.377a13.05,13.05,0,0,0-.066-1.438,12.719,12.719,0,0,0,1.487.066h4.346Zm-3.9,6.345h3.9V10.756h-3.9Zm9.882-3.586h-4.1v3.586h4.1Z" transform="translate(-11465.165 -12406.945)" fill="#262626"/>
      <path id="パス_35" data-name="パス 35" d="M636.525,16.92a16.1,16.1,0,0,0-2.016.1V15.185a14.02,14.02,0,0,0,2,.116H641v-.116a7.807,7.807,0,0,0-.049-.909h.71a8.731,8.731,0,0,0,1.95-1.339H639.07a16.371,16.371,0,0,0-1.652.066V11.351a11.985,11.985,0,0,0,1.669.083h5.469a7.418,7.418,0,0,0,1.256-.066l.909,1.008c-.281.231-.281.231-.595.5a23.15,23.15,0,0,1-3.3,2.413V15.3h4.313a13.613,13.613,0,0,0,2.033-.116v1.834a16.328,16.328,0,0,0-2.049-.1h-4.3v2.892a1.6,1.6,0,0,1-.215,1.041c-.281.413-.843.545-2.33.545-.215,0-.76-.017-1.619-.066a6.26,6.26,0,0,0-.546-1.751,15.108,15.108,0,0,0,2.049.165c.727,0,.843-.05.843-.38V16.92Zm.843-8.163a9.572,9.572,0,0,0-1.239-1.867l1.669-.5a12.2,12.2,0,0,1,1.5,2.363h1.751a9.63,9.63,0,0,0-1.008-2.082l1.719-.48a13.071,13.071,0,0,1,1.14,2.562h1.4a10.945,10.945,0,0,0,1.355-2.479l1.785.5a17.4,17.4,0,0,1-1.239,1.983h.744a19.752,19.752,0,0,0,2.033-.066,10.371,10.371,0,0,0-.066,1.372V11.6A10,10,0,0,0,649,12.855h-1.8V10.293H636.426v2.561h-1.8a7.239,7.239,0,0,0,.083-1.272v-1.52a10.867,10.867,0,0,0-.066-1.372,15.808,15.808,0,0,0,1.95.066Z" transform="translate(-11508.694 -12406.945)" fill="#262626"/>
      <path id="パス_36" data-name="パス 36" d="M712.85,10.772a13.1,13.1,0,0,1-3.073,4.28,5.194,5.194,0,0,0-.81-1.09,9.492,9.492,0,0,0-.545,1.206,14.83,14.83,0,0,1-1.074-1.95c.016.3.016.3.049,1.207,0,.066.017.908.017,1.09v4a16.3,16.3,0,0,0,.1,2.033h-1.884a13.188,13.188,0,0,0,.115-2.033V16.126l.016-.843s.017-.462.067-1.355a13.523,13.523,0,0,1-1.752,3.9,10.946,10.946,0,0,0-.909-1.867,14.845,14.845,0,0,0,2.379-5.089H704.9a9.786,9.786,0,0,0-1.272.066V9.219a9.092,9.092,0,0,0,1.272.066h.826V7.914a11.141,11.141,0,0,0-.083-1.719h1.85a14.164,14.164,0,0,0-.083,1.719V9.286h.661a5.731,5.731,0,0,0,.992-.066v1.7a9.312,9.312,0,0,0-.959-.05h-.661A7.434,7.434,0,0,0,709,13.317a8.911,8.911,0,0,0,2.264-3.255Zm3.619,3.256a17.063,17.063,0,0,1-1.834,3.288,9.984,9.984,0,0,0,4.23,2.379,6.612,6.612,0,0,0-.925,1.8,11.756,11.756,0,0,1-4.412-2.825,12.072,12.072,0,0,1-4.313,2.858,5.812,5.812,0,0,0-1.024-1.6,9.893,9.893,0,0,0,4.246-2.578,13.01,13.01,0,0,1-1.719-3.173l1.5-.76a10.482,10.482,0,0,0,1.305,2.578,9.942,9.942,0,0,0,1.305-2.661Zm-3.8-6.444a6.531,6.531,0,0,0-.083-1.239h1.966a6.039,6.039,0,0,0-.083,1.206v.71h2.247a13.611,13.611,0,0,0,1.818-.1V9.979c-.546-.05-1.108-.082-1.834-.082h-5.453a14.691,14.691,0,0,0-1.851.1V8.162a13.706,13.706,0,0,0,1.834.1h1.438Zm3.09,2.429a9.894,9.894,0,0,0,2.925,3.3,6.776,6.776,0,0,0-1.024,1.57,11.991,11.991,0,0,1-3.338-4.065Z" transform="translate(-11552.141 -12406.945)" fill="#262626"/>
      <path id="パス_37" data-name="パス 37" d="M570.655,57.1a5.174,5.174,0,0,0-.1-1.041h2.032a5.262,5.262,0,0,0-.1,1.025V57.3h4.875a12.78,12.78,0,0,0,1.735-.1V58.87a12.906,12.906,0,0,0-1.719-.082h-11.4a12.8,12.8,0,0,0-1.7.082V57.2a13.5,13.5,0,0,0,1.8.1h4.578Zm-5.916,8.113a14.6,14.6,0,0,0-.066-1.5c.529.05,1.008.066,1.719.066H577.1a13.137,13.137,0,0,0,1.619-.066,13.987,13.987,0,0,0-.066,1.488v4.213c0,.826-.083,1.14-.4,1.421-.331.3-.826.4-1.983.4-.347,0-.43,0-.959-.033-.264-.017-.264-.017-.528-.017a3.753,3.753,0,0,0-.364-1.652c.909.1,1.619.149,2.082.149.314,0,.4-.083.4-.347V65.216H566.49v4.395a11.343,11.343,0,0,0,.1,1.818H564.64a12.076,12.076,0,0,0,.1-1.818Zm2.049-4.643c0-.528-.016-.81-.049-1.206a14.177,14.177,0,0,0,1.6.066h6.874a12.251,12.251,0,0,0,1.471-.066c-.033.43-.05.678-.05,1.206v1.421a11.275,11.275,0,0,0,.05,1.223,12.973,12.973,0,0,0-1.553-.066h-6.841a14.266,14.266,0,0,0-1.553.066,11.76,11.76,0,0,0,.049-1.223Zm8.427,7.7a9.81,9.81,0,0,0,.05,1.108c-.314-.033-.925-.05-1.372-.05h-4.164v.826h-1.7a8.657,8.657,0,0,0,.066-1.339V66.9a9.894,9.894,0,0,0-.05-1.091c.38.033.727.05,1.339.05h4.528c.628,0,.859-.017,1.355-.05a8.852,8.852,0,0,0-.05,1.058Zm-6.709-6.494H574.9V60.771h-6.395Zm1.223,6.246h3.9v-.909h-3.9Z" transform="translate(-11464.252 -12438.499)" fill="#262626"/>
      <path id="パス_38" data-name="パス 38" d="M612.973,58.743a9.715,9.715,0,0,1-1.686,1.85,6.5,6.5,0,0,0-1.239-1.19,6.719,6.719,0,0,0,1.967-2.049,4.781,4.781,0,0,0,.595-1.339l1.784.331c-.347.677-.347.677-.463.875h2.115a9.878,9.878,0,0,0,1.6-.1v1.355a6.2,6.2,0,0,0,1.471-2.429l1.653.446c-.033.066-.149.314-.364.744h3.024a12.512,12.512,0,0,0,1.818-.1v1.7a12.944,12.944,0,0,0-1.735-.083h-1.289a8.227,8.227,0,0,1,.645,1.156l-1.636.513a9.773,9.773,0,0,0-.81-1.669h-.909a8.805,8.805,0,0,1-.992,1.173,4.361,4.361,0,0,0-.066.843h3.735a12.542,12.542,0,0,0,1.8-.083v1.652a13.756,13.756,0,0,0-1.785-.1h-3.751V63.32h4.825a13.978,13.978,0,0,0,1.917-.1v1.719a15.554,15.554,0,0,0-1.9-.1h-1.454v1.074h1.305a15.936,15.936,0,0,0,1.916-.1v1.7a15.655,15.655,0,0,0-1.933-.1h-1.289v2.3c0,.793-.248,1.223-.859,1.438a6.965,6.965,0,0,1-1.95.165c-.347,0-.628-.017-1.239-.033a6.21,6.21,0,0,0-.5-1.718,17.5,17.5,0,0,0,2.065.116c.595,0,.727-.066.727-.4V67.418h-5.387a17.193,17.193,0,0,1,2.28,2.148l-1.487,1.14a11.752,11.752,0,0,0-2.28-2.33l1.239-.958h-2.016a15.185,15.185,0,0,0-1.917.1v-1.7a15.651,15.651,0,0,0,1.9.1h7.667V64.84h-7.75a16.734,16.734,0,0,0-1.933.1V63.22a13.7,13.7,0,0,0,1.9.1h4.429V62.246h-3.206a16.354,16.354,0,0,0-1.818.083V60.693a13.359,13.359,0,0,0,1.834.083h3.189a3.788,3.788,0,0,0-.1-.958h1.206a4.342,4.342,0,0,0-.875-.711c.165-.149.231-.2.363-.33-.232-.017-.611-.033-.892-.033H615.6a7.757,7.757,0,0,1,.578,1.173l-1.619.5a8.769,8.769,0,0,0-.677-1.669Z" transform="translate(-11493.216 -12438.471)" fill="#262626"/>
      <path id="パス_39" data-name="パス 39" d="M659.861,66.92a16.113,16.113,0,0,0-2.016.1V65.185a13.969,13.969,0,0,0,2,.116h4.494v-.116a7.84,7.84,0,0,0-.049-.909H665a8.73,8.73,0,0,0,1.95-1.339h-4.544a16.37,16.37,0,0,0-1.652.066V61.351a11.981,11.981,0,0,0,1.669.083h5.469a7.417,7.417,0,0,0,1.256-.066l.909,1.008c-.281.231-.281.231-.595.5a23.138,23.138,0,0,1-3.3,2.413V65.3h4.313a13.564,13.564,0,0,0,2.033-.116v1.834a16.34,16.34,0,0,0-2.049-.1h-4.3v2.891a1.6,1.6,0,0,1-.215,1.041c-.281.413-.843.545-2.33.545-.215,0-.76-.017-1.62-.066a6.26,6.26,0,0,0-.546-1.751,15.112,15.112,0,0,0,2.049.165c.727,0,.843-.05.843-.38V66.92Zm.843-8.163a9.57,9.57,0,0,0-1.239-1.867l1.669-.5a12.2,12.2,0,0,1,1.5,2.363h1.751a9.652,9.652,0,0,0-1.008-2.082l1.719-.48a13.1,13.1,0,0,1,1.14,2.562h1.4A10.955,10.955,0,0,0,669,56.278l1.785.5a17.422,17.422,0,0,1-1.239,1.983h.744a19.751,19.751,0,0,0,2.032-.066,10.391,10.391,0,0,0-.066,1.372V61.6a10.018,10.018,0,0,0,.083,1.256h-1.8V60.293H659.762v2.561h-1.8a7.239,7.239,0,0,0,.083-1.272v-1.52a10.853,10.853,0,0,0-.066-1.372,15.812,15.812,0,0,0,1.95.066Z" transform="translate(-11523.461 -12438.584)" fill="#262626"/>
      <path id="パス_40" data-name="パス 40" d="M712.849,60.772a13.1,13.1,0,0,1-3.074,4.28,5.189,5.189,0,0,0-.81-1.09,9.459,9.459,0,0,0-.545,1.206,14.846,14.846,0,0,1-1.074-1.95c.017.3.017.3.049,1.207,0,.066.016.908.016,1.09v4a16.34,16.34,0,0,0,.1,2.033h-1.884a13.193,13.193,0,0,0,.115-2.033V66.126l.017-.843s.016-.462.067-1.355a13.514,13.514,0,0,1-1.752,3.9,10.92,10.92,0,0,0-.908-1.867,14.846,14.846,0,0,0,2.379-5.089H704.9a9.783,9.783,0,0,0-1.272.066V59.219a9.09,9.09,0,0,0,1.272.066h.826V57.914a11.169,11.169,0,0,0-.082-1.719H707.5a14.1,14.1,0,0,0-.083,1.719v1.372h.661a5.725,5.725,0,0,0,.991-.066v1.7a9.3,9.3,0,0,0-.958-.05h-.661A7.427,7.427,0,0,0,709,63.317a8.908,8.908,0,0,0,2.263-3.255Zm3.619,3.256a17.034,17.034,0,0,1-1.835,3.288,9.988,9.988,0,0,0,4.23,2.379,6.627,6.627,0,0,0-.925,1.8,11.759,11.759,0,0,1-4.412-2.825,12.07,12.07,0,0,1-4.313,2.858,5.811,5.811,0,0,0-1.025-1.6,9.891,9.891,0,0,0,4.246-2.578,13.018,13.018,0,0,1-1.718-3.173l1.5-.76a10.494,10.494,0,0,0,1.305,2.578,9.934,9.934,0,0,0,1.305-2.661Zm-3.8-6.444a6.524,6.524,0,0,0-.083-1.239h1.966a6.051,6.051,0,0,0-.083,1.206v.71h2.247a13.606,13.606,0,0,0,1.818-.1v1.817c-.546-.05-1.107-.082-1.834-.082h-5.453a14.689,14.689,0,0,0-1.851.1V58.162a13.7,13.7,0,0,0,1.834.1h1.438Zm3.09,2.429a9.9,9.9,0,0,0,2.924,3.3,6.784,6.784,0,0,0-1.024,1.57,11.991,11.991,0,0,1-3.338-4.065Z" transform="translate(-11552.14 -12438.584)" fill="#262626"/>
      <path id="パス_41" data-name="パス 41" d="M144.732,117.681a1.055,1.055,0,0,0,.206.647,1.3,1.3,0,0,0,1.073.433c.734,0,1.175-.33,1.175-.881a.746.746,0,0,0-.367-.676,4.641,4.641,0,0,0-1.278-.36,2.591,2.591,0,0,1-1.109-.448,1.446,1.446,0,0,1-.565-1.19c0-1.021.823-1.682,2.086-1.682a2.166,2.166,0,0,1,1.829.742,1.98,1.98,0,0,1,.36.852l-1.05.124a.949.949,0,0,0-.221-.521,1.16,1.16,0,0,0-.918-.353c-.639,0-1.073.323-1.073.8a.7.7,0,0,0,.5.669,6.312,6.312,0,0,0,1.036.264,3.242,3.242,0,0,1,1.2.448,1.451,1.451,0,0,1,.61,1.264,1.71,1.71,0,0,1-.463,1.249,2.435,2.435,0,0,1-1.756.558,2.951,2.951,0,0,1-1.543-.382,1.73,1.73,0,0,1-.646-.838,2.472,2.472,0,0,1-.14-.61Z" transform="translate(-11198.104 -12474.86)" fill="#262626"/>
      <path id="パス_42" data-name="パス 42" d="M161.9,119.731a4.987,4.987,0,0,0-.206-.772l-.294-.8h-2.351l-.294.8a3.671,3.671,0,0,0-.22.772h-1.2a8.066,8.066,0,0,0,.39-.867l1.616-4.239a4.352,4.352,0,0,0,.235-.742h1.278a4.875,4.875,0,0,0,.25.742l1.63,4.239a7.762,7.762,0,0,0,.375.867Zm-1.55-4.592c-.029-.08-.051-.169-.132-.411-.117.345-.117.345-.14.411l-.764,2.175h1.822Z" transform="translate(-11206.746 -12475.088)" fill="#262626"/>
      <path id="パス_43" data-name="パス 43" d="M178.56,119.731a7.224,7.224,0,0,0-.47-.786l-1.895-2.858c-.14-.22-.323-.536-.5-.881.007.1.007.1.029.375.007.14.022.47.022.639v2.409a8.14,8.14,0,0,0,.059,1.1h-1.073a7.9,7.9,0,0,0,.059-1.109V114.83a6.118,6.118,0,0,0-.059-.947h1.146a4.028,4.028,0,0,0,.448.778l1.859,2.8c.176.264.412.646.573.94-.029-.287-.052-.727-.052-1.036V114.9a6.425,6.425,0,0,0-.059-1.014h1.073a6.426,6.426,0,0,0-.059,1.014v3.886a5.553,5.553,0,0,0,.059.948Z" transform="translate(-11217.758 -12475.088)" fill="#262626"/>
      <path id="パス_44" data-name="パス 44" d="M191.252,114.779a6.165,6.165,0,0,0-.059-.955c.294.015.47.022.933.022h1.329a2.621,2.621,0,0,1,1.984.646,2.959,2.959,0,0,1,.815,2.226,3.092,3.092,0,0,1-.867,2.336,2.608,2.608,0,0,1-1.925.639h-1.337c-.448,0-.632.007-.933.022a5.948,5.948,0,0,0,.059-.97Zm2.145,4.047a1.617,1.617,0,0,0,1.3-.47,2.333,2.333,0,0,0,.537-1.631,2.187,2.187,0,0,0-.507-1.572,1.648,1.648,0,0,0-1.322-.441h-1.176v4.114Z" transform="translate(-11228.173 -12475.051)" fill="#262626"/>
      <path id="パス_45" data-name="パス 45" d="M210.722,119.731a4.95,4.95,0,0,0-.206-.772l-.294-.8h-2.351l-.294.8a3.666,3.666,0,0,0-.22.772h-1.2a8.078,8.078,0,0,0,.39-.867l1.616-4.239a4.355,4.355,0,0,0,.235-.742h1.278a4.876,4.876,0,0,0,.25.742l1.63,4.239a7.758,7.758,0,0,0,.375.867Zm-1.55-4.592c-.029-.08-.051-.169-.132-.411-.117.345-.117.345-.139.411l-.764,2.175h1.822Z" transform="translate(-11237.639 -12475.088)" fill="#262626"/>
      <path id="パス_46" data-name="パス 46" d="M228.015,117.972a6.027,6.027,0,0,0,.051.955,4.636,4.636,0,0,1-1.175.506,4.334,4.334,0,0,1-1.08.14,2.573,2.573,0,0,1-2.087-.845,3.455,3.455,0,0,1-.69-2.233,2.939,2.939,0,0,1,1.176-2.579,2.788,2.788,0,0,1,1.631-.433,2.4,2.4,0,0,1,1.69.632,2.069,2.069,0,0,1,.544.874l-1.007.272a1.2,1.2,0,0,0-1.352-.9,1.551,1.551,0,0,0-1.116.448,2.3,2.3,0,0,0-.544,1.674,2.593,2.593,0,0,0,.5,1.719,1.537,1.537,0,0,0,1.278.507,2.192,2.192,0,0,0,1.249-.33v-1.2h-.4a4.025,4.025,0,0,0-.749.044v-.947a5.48,5.48,0,0,0,.881.044h.382c.338,0,.551-.007.867-.029a6.161,6.161,0,0,0-.051.911Z" transform="translate(-11248.321 -12474.834)" fill="#262626"/>
      <path id="パス_47" data-name="パス 47" d="M242.762,119.731a4.94,4.94,0,0,0-.206-.772l-.294-.8h-2.351l-.294.8a3.645,3.645,0,0,0-.22.772h-1.205a8.065,8.065,0,0,0,.39-.867l1.616-4.239a4.359,4.359,0,0,0,.235-.742h1.278a4.866,4.866,0,0,0,.25.742l1.631,4.239a7.789,7.789,0,0,0,.375.867Zm-1.55-4.592c-.029-.08-.051-.169-.132-.411-.118.345-.118.345-.14.411l-.764,2.175H242Z" transform="translate(-11257.913 -12475.088)" fill="#262626"/>
      <path id="パス_48" data-name="パス 48" d="M259.965,118.8a10.06,10.06,0,0,0,.734.933H259.34a6.934,6.934,0,0,0-.463-.772l-1.462-2.057-.8.8v1.08a4.985,4.985,0,0,0,.066.948h-1.087a6.312,6.312,0,0,0,.059-.948V114.83a6.059,6.059,0,0,0-.059-.947h1.087a5.225,5.225,0,0,0-.066.947v1.712l1.873-1.947a3.583,3.583,0,0,0,.573-.712h1.388c-.213.213-.455.448-.779.778L258.1,116.27Z" transform="translate(-11268.925 -12475.088)" fill="#262626"/>
      <path id="パス_49" data-name="パス 49" d="M276.262,113.883a5.949,5.949,0,0,0-.058,1v2.608a2.212,2.212,0,0,1-2.506,2.373,2.53,2.53,0,0,1-1.9-.691,2.366,2.366,0,0,1-.551-1.689v-2.593a6.03,6.03,0,0,0-.059-1.006h1.095a5.744,5.744,0,0,0-.059,1.006v2.593a1.5,1.5,0,1,0,3-.008v-2.586a5.97,5.97,0,0,0-.059-1.006Z" transform="translate(-11278.795 -12475.088)" fill="#262626"/>
      <path id="パス_50" data-name="パス 50" d="M292.026,119.693a6.325,6.325,0,0,0-.947-.051h-2.292c-.441,0-.639.007-.933.022a5.942,5.942,0,0,0,.059-.97V114.72a6.5,6.5,0,0,0-.059-.948c.294.015.485.022.933.022h2.218a7.846,7.846,0,0,0,.947-.052v.969a6.639,6.639,0,0,0-.947-.051H288.89v1.513h1.785a7.655,7.655,0,0,0,.955-.051v.962a5.809,5.809,0,0,0-.955-.051h-1.792v1.733h2.2a7.087,7.087,0,0,0,.94-.051Z" transform="translate(-11289.337 -12474.999)" fill="#262626"/>
      <path id="パス_51" data-name="パス 51" d="M305.421,119.731a7.222,7.222,0,0,0-.47-.786l-1.895-2.858c-.14-.22-.323-.536-.5-.881.007.1.007.1.029.375.007.14.022.47.022.639v2.409a8.077,8.077,0,0,0,.059,1.1h-1.073a7.9,7.9,0,0,0,.059-1.109V114.83a6.114,6.114,0,0,0-.059-.947h1.146a4.027,4.027,0,0,0,.448.778l1.859,2.8c.176.264.412.646.573.94-.029-.287-.052-.727-.052-1.036V114.9a6.417,6.417,0,0,0-.059-1.014h1.073a6.426,6.426,0,0,0-.059,1.014v3.886a5.553,5.553,0,0,0,.059.948Z" transform="translate(-11298.032 -12475.088)" fill="#262626"/>
      <path id="パス_52" data-name="パス 52" d="M327.224,113.883a5.541,5.541,0,0,0-.059.947v3.291a1.735,1.735,0,0,1-.4,1.2,1.888,1.888,0,0,1-1.425.514,1.916,1.916,0,0,1-1.492-.551,2.244,2.244,0,0,1-.418-.7l.969-.353a.962.962,0,0,0,.4.6,1.074,1.074,0,0,0,.551.14.87.87,0,0,0,.639-.235.948.948,0,0,0,.176-.639V114.83a5.6,5.6,0,0,0-.059-.947Z" transform="translate(-11311.853 -12475.088)" fill="#262626"/>
      <path id="パス_53" data-name="パス 53" d="M340.446,118.325a5.284,5.284,0,0,0-.059.955v2.306a6,6,0,0,0,.059.955h-1v-.389c0-.111,0-.133.008-.316a1.866,1.866,0,0,1-2.388.573,1.371,1.371,0,0,1-.595-1.271V119.28a6.749,6.749,0,0,0-.059-.955h1.065a6.578,6.578,0,0,0-.052.955v1.631a.9.9,0,0,0,.338.837.916.916,0,0,0,.4.1c.529,0,.948-.36,1.278-1.087V119.28a7.664,7.664,0,0,0-.059-.955Z" transform="translate(-11320.065 -12477.898)" fill="#262626"/>
      <path id="パス_54" data-name="パス 54" d="M349.934,122.414a6.1,6.1,0,0,0,.059-.955v-2.307a6.027,6.027,0,0,0-.059-.954h1v.389a2.848,2.848,0,0,1-.015.316,1.679,1.679,0,0,1,1.5-.779,1.451,1.451,0,0,1,1.249.544,1.635,1.635,0,0,1,.25,1.029v1.763a5.808,5.808,0,0,0,.059.955h-1.065a7.9,7.9,0,0,0,.051-.955v-1.631a1.2,1.2,0,0,0-.125-.647.692.692,0,0,0-.617-.3c-.529,0-.962.367-1.285,1.094v1.484a6.548,6.548,0,0,0,.059.955Z" transform="translate(-11328.621 -12477.771)" fill="#262626"/>
      <path id="パス_55" data-name="パス 55" d="M364.513,114.817h-1.08v-.933h1.08Zm-.008.7a6.6,6.6,0,0,0-.051.962v2.292a7.387,7.387,0,0,0,.051.963h-1.072a6.606,6.606,0,0,0,.059-.955V116.47a6.034,6.034,0,0,0-.059-.955Z" transform="translate(-11337.163 -12475.089)" fill="#262626"/>
      <path id="パス_56" data-name="パス 56" d="M368.413,120.224a2.183,2.183,0,1,1,2.2,2.24,2.069,2.069,0,0,1-2.2-2.24m.948,0c0,.9.47,1.462,1.234,1.462s1.234-.551,1.234-1.447c0-.947-.448-1.491-1.227-1.491s-1.241.558-1.241,1.476" transform="translate(-11340.314 -12477.683)" fill="#262626"/>
      <path id="パス_57" data-name="パス 57" d="M385.179,119.11a2.192,2.192,0,0,0-.654-.117,1.05,1.05,0,0,0-.852.36,1.183,1.183,0,0,0-.3.734v1.359a7.672,7.672,0,0,0,.052.955h-1.051a7.985,7.985,0,0,0,.052-.955V119.14a5.761,5.761,0,0,0-.052-.955h1v.69a1.405,1.405,0,0,1,1.381-.771,3.81,3.81,0,0,1,.683.081Z" transform="translate(-11349.147 -12477.759)" fill="#262626"/>
      <path id="パス_58" data-name="パス 58" d="M404.117,113.883a5.727,5.727,0,0,0-.059.94v3.959a5.829,5.829,0,0,0,.059.948h-1.094a5.652,5.652,0,0,0,.058-.948v-1.66h-2.953v1.66a5.77,5.77,0,0,0,.059.948h-1.095a5.513,5.513,0,0,0,.059-.948V114.83a5.557,5.557,0,0,0-.059-.947h1.095a6.021,6.021,0,0,0-.059.94v1.417h2.953V114.83a5.586,5.586,0,0,0-.058-.947Z" transform="translate(-11359.728 -12475.088)" fill="#262626"/>
      <path id="パス_59" data-name="パス 59" d="M416.552,114.817h-1.08v-.933h1.08Zm-.007.7a6.529,6.529,0,0,0-.052.962v2.292a7.311,7.311,0,0,0,.052.963h-1.073a6.615,6.615,0,0,0,.059-.955V116.47a6.042,6.042,0,0,0-.059-.955Z" transform="translate(-11370.093 -12475.089)" fill="#262626"/>
      <path id="パス_60" data-name="パス 60" d="M421.275,122.6a1.244,1.244,0,0,0,1.139.559,1.321,1.321,0,0,0,1.2-.551,2,2,0,0,0,.191-.977,1.671,1.671,0,0,1-1.44.668,1.86,1.86,0,0,1-1.918-2.056,1.9,1.9,0,0,1,1.962-2.094,1.549,1.549,0,0,1,1.4.647,1.757,1.757,0,0,1-.015-.242v-.338h.985a6.823,6.823,0,0,0-.051.918v2.461a2.2,2.2,0,0,1-.617,1.807,2.773,2.773,0,0,1-1.733.47,2.131,2.131,0,0,1-1.844-.764Zm.477-1.322a1.127,1.127,0,0,0,.779.33,1.229,1.229,0,0,0,1.021-.58,1.556,1.556,0,0,0,.206-.837,1.353,1.353,0,0,0-.441-1.087,1.108,1.108,0,0,0-.713-.265c-.734,0-1.19.551-1.19,1.425a1.42,1.42,0,0,0,.338,1.014" transform="translate(-11373.244 -12477.784)" fill="#262626"/>
      <path id="パス_61" data-name="パス 61" d="M435.863,113.883a7.056,7.056,0,0,0-.051.97v1.05a3.011,3.011,0,0,1-.015.316,1.716,1.716,0,0,1,1.521-.779,1.345,1.345,0,0,1,1.477,1.484v1.851a5.808,5.808,0,0,0,.059.956h-1.065a7.744,7.744,0,0,0,.052-.956v-1.63a1.036,1.036,0,0,0-.213-.727.683.683,0,0,0-.507-.213c-.551,0-.977.353-1.308,1.087v1.484a6.492,6.492,0,0,0,.059.956h-1.058a6.047,6.047,0,0,0,.059-.956v-3.93a6.869,6.869,0,0,0-.051-.962Z" transform="translate(-11382.33 -12475.088)" fill="#262626"/>
      <path id="パス_62" data-name="パス 62" d="M455.731,117.681a1.05,1.05,0,0,0,.206.647,1.3,1.3,0,0,0,1.072.433c.734,0,1.175-.33,1.175-.881a.746.746,0,0,0-.367-.676,4.63,4.63,0,0,0-1.278-.36,2.587,2.587,0,0,1-1.109-.448,1.445,1.445,0,0,1-.566-1.19c0-1.021.823-1.682,2.086-1.682a2.166,2.166,0,0,1,1.829.742,1.98,1.98,0,0,1,.36.852l-1.05.124a.947.947,0,0,0-.221-.521,1.16,1.16,0,0,0-.918-.353c-.639,0-1.073.323-1.073.8a.7.7,0,0,0,.5.669,6.328,6.328,0,0,0,1.036.264,3.24,3.24,0,0,1,1.2.448,1.451,1.451,0,0,1,.61,1.264,1.711,1.711,0,0,1-.463,1.249,2.435,2.435,0,0,1-1.756.558,2.949,2.949,0,0,1-1.542-.382,1.729,1.729,0,0,1-.647-.838,2.5,2.5,0,0,1-.14-.61Z" transform="translate(-11394.897 -12474.86)" fill="#262626"/>
      <path id="パス_63" data-name="パス 63" d="M471.979,119.507a1.328,1.328,0,0,0-.228-.448.925.925,0,0,0-.757-.338c-.72,0-1.168.566-1.168,1.477s.455,1.484,1.2,1.484a.984.984,0,0,0,.845-.412,1.03,1.03,0,0,0,.147-.367l.911.184a2.059,2.059,0,0,1-.309.625,1.908,1.908,0,0,1-1.616.741,2.045,2.045,0,0,1-2.131-2.233,2.375,2.375,0,0,1,.625-1.7,2.01,2.01,0,0,1,1.477-.559,1.9,1.9,0,0,1,1.645.794,2.4,2.4,0,0,1,.257.536Z" transform="translate(-11403.884 -12477.67)" fill="#262626"/>
      <path id="パス_64" data-name="パス 64" d="M482.943,113.883a7.061,7.061,0,0,0-.051.97v1.05a3.023,3.023,0,0,1-.015.316,1.716,1.716,0,0,1,1.521-.779,1.345,1.345,0,0,1,1.477,1.484v1.851a5.8,5.8,0,0,0,.059.956h-1.065a7.738,7.738,0,0,0,.052-.956v-1.63a1.036,1.036,0,0,0-.213-.727.683.683,0,0,0-.507-.213c-.551,0-.977.353-1.308,1.087v1.484a6.549,6.549,0,0,0,.059.956h-1.058a6.043,6.043,0,0,0,.059-.956v-3.93a6.875,6.875,0,0,0-.051-.962Z" transform="translate(-11412.121 -12475.088)" fill="#262626"/>
      <path id="パス_65" data-name="パス 65" d="M494.912,120.224a2.183,2.183,0,1,1,2.2,2.24,2.07,2.07,0,0,1-2.2-2.24m.948,0c0,.9.47,1.462,1.234,1.462s1.235-.551,1.235-1.447c0-.947-.448-1.491-1.227-1.491s-1.242.558-1.242,1.476" transform="translate(-11420.36 -12477.683)" fill="#262626"/>
      <path id="パス_66" data-name="パス 66" d="M508.353,120.224a2.183,2.183,0,1,1,2.2,2.24,2.07,2.07,0,0,1-2.2-2.24m.948,0c0,.9.47,1.462,1.234,1.462s1.235-.551,1.235-1.447c0-.947-.448-1.491-1.227-1.491s-1.242.558-1.242,1.476" transform="translate(-11428.865 -12477.683)" fill="#262626"/>
      <path id="パス_67" data-name="パス 67" d="M523.339,113.883a6.8,6.8,0,0,0-.052.962v3.93a7.572,7.572,0,0,0,.052.956h-1.065a7.2,7.2,0,0,0,.051-.956v-3.937a6.69,6.69,0,0,0-.051-.955Z" transform="translate(-11437.674 -12475.088)" fill="#262626"/>
      <path id="パス_68" data-name="パス 68" d="M532.863,120.458a.874.874,0,1,1-.874-.874.872.872,0,0,1,.874.874" transform="translate(-11443.27 -12478.695)" fill="#262626"/>
      <path id="パス_69" data-name="パス 69" d="M542.491,117.681a1.05,1.05,0,0,0,.206.647,1.3,1.3,0,0,0,1.072.433c.734,0,1.175-.33,1.175-.881a.746.746,0,0,0-.367-.676,4.633,4.633,0,0,0-1.278-.36,2.589,2.589,0,0,1-1.109-.448,1.445,1.445,0,0,1-.566-1.19c0-1.021.823-1.682,2.086-1.682a2.166,2.166,0,0,1,1.829.742,1.977,1.977,0,0,1,.36.852l-1.05.124a.949.949,0,0,0-.22-.521,1.161,1.161,0,0,0-.918-.353c-.639,0-1.073.323-1.073.8a.7.7,0,0,0,.5.669,6.325,6.325,0,0,0,1.036.264,3.24,3.24,0,0,1,1.2.448,1.45,1.45,0,0,1,.61,1.264,1.709,1.709,0,0,1-.463,1.249,2.434,2.434,0,0,1-1.756.558,2.949,2.949,0,0,1-1.542-.382,1.728,1.728,0,0,1-.647-.838,2.5,2.5,0,0,1-.14-.61Z" transform="translate(-11449.799 -12474.86)" fill="#262626"/>
      <path id="パス_70" data-name="パス 70" d="M556.565,120.447a1.368,1.368,0,0,0,.272.823,1.236,1.236,0,0,0,1.8.044,1.077,1.077,0,0,0,.213-.382l.867.279a2.057,2.057,0,0,1-.448.676,2.085,2.085,0,0,1-1.513.566,2.249,2.249,0,0,1-.051-4.488,1.866,1.866,0,0,1,1.829,1.161,3.02,3.02,0,0,1,.213,1.116c0,.015,0,.037.015.206Zm2.241-.727a1.156,1.156,0,0,0-.324-.705,1.046,1.046,0,0,0-.793-.294,1.1,1.1,0,0,0-1.1,1Z" transform="translate(-11458.783 -12477.67)" fill="#262626"/>
      <path id="パス_71" data-name="パス 71" d="M568.893,122.414a6.094,6.094,0,0,0,.059-.955v-2.307a6.025,6.025,0,0,0-.059-.954h1v.389a2.854,2.854,0,0,1-.015.316,1.679,1.679,0,0,1,1.5-.779,1.45,1.45,0,0,1,1.248.544,1.631,1.631,0,0,1,.25,1.029v1.763a5.855,5.855,0,0,0,.058.955h-1.065a7.807,7.807,0,0,0,.051-.955v-1.631a1.2,1.2,0,0,0-.125-.647.691.691,0,0,0-.617-.3c-.529,0-.963.367-1.286,1.094v1.484a6.534,6.534,0,0,0,.059.955Z" transform="translate(-11467.174 -12477.771)" fill="#262626"/>
      <path id="パス_72" data-name="パス 72" d="M583.473,114.817h-1.08v-.933h1.08Zm-.007.7a6.553,6.553,0,0,0-.052.962v2.292a7.336,7.336,0,0,0,.052.963h-1.073a6.623,6.623,0,0,0,.059-.955V116.47a6.048,6.048,0,0,0-.059-.955Z" transform="translate(-11475.717 -12475.089)" fill="#262626"/>
      <path id="パス_73" data-name="パス 73" d="M587.373,120.224a2.183,2.183,0,1,1,2.2,2.24,2.07,2.07,0,0,1-2.2-2.24m.948,0c0,.9.47,1.462,1.234,1.462s1.234-.551,1.234-1.447c0-.947-.448-1.491-1.227-1.491s-1.242.558-1.242,1.476" transform="translate(-11478.868 -12477.683)" fill="#262626"/>
      <path id="パス_74" data-name="パス 74" d="M604.14,119.11a2.194,2.194,0,0,0-.654-.117,1.049,1.049,0,0,0-.852.36,1.182,1.182,0,0,0-.3.734v1.359a7.741,7.741,0,0,0,.051.955h-1.051a8.051,8.051,0,0,0,.051-.955V119.14a5.757,5.757,0,0,0-.051-.955h1v.69a1.4,1.4,0,0,1,1.381-.771,3.809,3.809,0,0,1,.683.081Z" transform="translate(-11487.702 -12477.759)" fill="#262626"/>
      <path id="パス_75" data-name="パス 75" d="M623.077,113.883a5.727,5.727,0,0,0-.059.94v3.959a5.829,5.829,0,0,0,.059.948h-1.094a5.649,5.649,0,0,0,.058-.948v-1.66h-2.953v1.66a5.778,5.778,0,0,0,.059.948h-1.1a5.5,5.5,0,0,0,.059-.948V114.83a5.549,5.549,0,0,0-.059-.947h1.1a6.029,6.029,0,0,0-.059.94v1.417h2.953V114.83a5.583,5.583,0,0,0-.058-.947Z" transform="translate(-11498.28 -12475.088)" fill="#262626"/>
      <path id="パス_76" data-name="パス 76" d="M635.512,114.817h-1.079v-.933h1.079Zm-.007.7a6.529,6.529,0,0,0-.052.962v2.292a7.316,7.316,0,0,0,.052.963h-1.073a6.6,6.6,0,0,0,.059-.955V116.47a6.024,6.024,0,0,0-.059-.955Z" transform="translate(-11508.646 -12475.089)" fill="#262626"/>
      <path id="パス_77" data-name="パス 77" d="M640.235,122.6a1.245,1.245,0,0,0,1.139.559,1.32,1.32,0,0,0,1.2-.551,2,2,0,0,0,.191-.977,1.671,1.671,0,0,1-1.44.668,1.86,1.86,0,0,1-1.918-2.056,1.9,1.9,0,0,1,1.962-2.094,1.549,1.549,0,0,1,1.4.647,1.794,1.794,0,0,1-.014-.242v-.338h.984a6.809,6.809,0,0,0-.051.918v2.461a2.2,2.2,0,0,1-.617,1.807,2.773,2.773,0,0,1-1.733.47,2.131,2.131,0,0,1-1.844-.764Zm.477-1.322a1.127,1.127,0,0,0,.779.33,1.228,1.228,0,0,0,1.021-.58,1.556,1.556,0,0,0,.206-.837,1.353,1.353,0,0,0-.441-1.087,1.109,1.109,0,0,0-.713-.265c-.735,0-1.19.551-1.19,1.425a1.42,1.42,0,0,0,.338,1.014" transform="translate(-11511.798 -12477.784)" fill="#262626"/>
      <path id="パス_78" data-name="パス 78" d="M654.823,113.883a7.067,7.067,0,0,0-.051.97v1.05a3.029,3.029,0,0,1-.015.316,1.716,1.716,0,0,1,1.521-.779,1.345,1.345,0,0,1,1.477,1.484v1.851a5.811,5.811,0,0,0,.059.956h-1.065a7.739,7.739,0,0,0,.052-.956v-1.63a1.037,1.037,0,0,0-.213-.727.683.683,0,0,0-.507-.213c-.551,0-.977.353-1.308,1.087v1.484a6.545,6.545,0,0,0,.059.956h-1.058a6.053,6.053,0,0,0,.059-.956v-3.93a6.889,6.889,0,0,0-.051-.962Z" transform="translate(-11520.884 -12475.088)" fill="#262626"/>
      <path id="パス_79" data-name="パス 79" d="M674.691,117.681a1.05,1.05,0,0,0,.206.647,1.3,1.3,0,0,0,1.072.433c.734,0,1.176-.33,1.176-.881a.746.746,0,0,0-.367-.676,4.63,4.63,0,0,0-1.278-.36,2.589,2.589,0,0,1-1.109-.448,1.445,1.445,0,0,1-.566-1.19c0-1.021.823-1.682,2.086-1.682a2.167,2.167,0,0,1,1.829.742,1.979,1.979,0,0,1,.359.852l-1.05.124a.948.948,0,0,0-.22-.521,1.161,1.161,0,0,0-.918-.353c-.639,0-1.073.323-1.073.8a.7.7,0,0,0,.5.669,6.332,6.332,0,0,0,1.036.264,3.239,3.239,0,0,1,1.2.448,1.451,1.451,0,0,1,.61,1.264,1.709,1.709,0,0,1-.463,1.249,2.434,2.434,0,0,1-1.756.558,2.95,2.95,0,0,1-1.542-.382,1.729,1.729,0,0,1-.647-.838,2.5,2.5,0,0,1-.14-.61Z" transform="translate(-11533.451 -12474.86)" fill="#262626"/>
      <path id="パス_80" data-name="パス 80" d="M690.939,119.507a1.323,1.323,0,0,0-.228-.448.925.925,0,0,0-.757-.338c-.72,0-1.168.566-1.168,1.477s.455,1.484,1.2,1.484a.984.984,0,0,0,.845-.412,1.035,1.035,0,0,0,.147-.367l.911.184a2.049,2.049,0,0,1-.309.625,1.908,1.908,0,0,1-1.616.741,2.045,2.045,0,0,1-2.131-2.233,2.376,2.376,0,0,1,.625-1.7,2.011,2.011,0,0,1,1.477-.559,1.9,1.9,0,0,1,1.645.794,2.4,2.4,0,0,1,.257.536Z" transform="translate(-11542.437 -12477.67)" fill="#262626"/>
      <path id="パス_81" data-name="パス 81" d="M701.9,113.883a7.07,7.07,0,0,0-.051.97v1.05a3.017,3.017,0,0,1-.015.316,1.715,1.715,0,0,1,1.521-.779,1.345,1.345,0,0,1,1.477,1.484v1.851a5.8,5.8,0,0,0,.059.956h-1.065a7.787,7.787,0,0,0,.052-.956v-1.63a1.037,1.037,0,0,0-.213-.727.684.684,0,0,0-.507-.213c-.551,0-.977.353-1.308,1.087v1.484a6.484,6.484,0,0,0,.059.956h-1.058a6.054,6.054,0,0,0,.059-.956v-3.93a6.879,6.879,0,0,0-.051-.962Z" transform="translate(-11550.676 -12475.088)" fill="#262626"/>
      <path id="パス_82" data-name="パス 82" d="M713.872,120.224a2.183,2.183,0,1,1,2.2,2.24,2.07,2.07,0,0,1-2.2-2.24m.948,0c0,.9.47,1.462,1.234,1.462s1.234-.551,1.234-1.447c0-.947-.448-1.491-1.227-1.491s-1.242.558-1.242,1.476" transform="translate(-11558.914 -12477.683)" fill="#262626"/>
      <path id="パス_83" data-name="パス 83" d="M727.312,120.224a2.183,2.183,0,1,1,2.2,2.24,2.07,2.07,0,0,1-2.2-2.24m.948,0c0,.9.47,1.462,1.234,1.462s1.235-.551,1.235-1.447c0-.947-.448-1.491-1.227-1.491s-1.242.558-1.242,1.476" transform="translate(-11567.419 -12477.683)" fill="#262626"/>
      <path id="パス_84" data-name="パス 84" d="M742.3,113.883a6.808,6.808,0,0,0-.051.962v3.93a7.586,7.586,0,0,0,.051.956h-1.065a7.171,7.171,0,0,0,.051-.956v-3.937a6.663,6.663,0,0,0-.051-.955Z" transform="translate(-11576.229 -12475.088)" fill="#262626"/>
    </g>
  </g>
</svg>
